<svg width="15" height="22" viewBox="0 0 15 22" fill="none" xmlns="http://www.w3.org/2000/svg">
<g clip-path="url(#clip0_3_2455)">
<path d="M14.5021 9.3841L8.16243 15.4623C7.94115 15.6395 7.742 15.728 7.56497 15.728C7.36582 15.728 7.17773 15.6505 7.00071 15.4955L0.627852 9.3841C0.472956 9.2291 0.395508 9.04088 0.395508 8.81946C0.395508 8.59803 0.472956 8.40981 0.627852 8.25481C0.981899 7.94481 1.35807 7.94481 1.75638 8.25481L7.56497 13.8348L13.3736 8.25481C13.7719 7.94481 14.148 7.95588 14.5021 8.28803C14.657 8.42088 14.7344 8.59803 14.7344 8.81946C14.7344 9.04088 14.657 9.2291 14.5021 9.3841Z" fill="#004CE9"/>
</g>
<defs>
<clipPath id="clip0_3_2455">
<rect width="14.87" height="20.39" fill="white" transform="matrix(1 0 0 -1 0.129883 21.1401)"/>
</clipPath>
</defs>
</svg>
