<svg width="15" height="22" viewBox="0 0 15 22" fill="none" xmlns="http://www.w3.org/2000/svg">
<g clip-path="url(#clip0_3_2444)">
<path d="M0.62779 12.5261L6.96746 6.44784C7.18874 6.2707 7.38789 6.18213 7.56491 6.18213C7.76406 6.18213 7.95215 6.25963 8.12917 6.41463L14.502 12.5261C14.6569 12.6811 14.7344 12.8693 14.7344 13.0907C14.7344 13.3121 14.6569 13.5003 14.502 13.6553C14.148 13.9653 13.7718 13.9653 13.3735 13.6553L7.56491 8.07534L1.75632 13.6553C1.35801 13.9653 0.981838 13.9543 0.62779 13.6221C0.472895 13.4893 0.395447 13.3121 0.395447 13.0907C0.395447 12.8693 0.472895 12.6811 0.62779 12.5261Z" fill="white"/>
</g>
<defs>
<clipPath id="clip0_3_2444">
<rect width="14.87" height="20.39" fill="white" transform="matrix(-1 0 0 1 15 0.77002)"/>
</clipPath>
</defs>
</svg>
