<svg width="17" height="18" viewBox="0 0 17 18" fill="none" xmlns="http://www.w3.org/2000/svg">
<g clip-path="url(#clip0_3_2451)">
<path d="M0 8.9502C0.0221354 7.35645 0.409505 5.92871 1.16211 4.66699C1.91471 3.38314 2.93294 2.36491 4.2168 1.6123C5.47852 0.859701 6.90625 0.47233 8.5 0.450195C10.0938 0.47233 11.5215 0.859701 12.7832 1.6123C14.0671 2.36491 15.0853 3.38314 15.8379 4.66699C16.5905 5.92871 16.9779 7.35645 17 8.9502C16.9779 10.5439 16.5905 11.9717 15.8379 13.2334C15.0853 14.5173 14.0671 15.5355 12.7832 16.2881C11.5215 17.0407 10.0938 17.4281 8.5 17.4502C6.90625 17.4281 5.47852 17.0407 4.2168 16.2881C2.93294 15.5355 1.91471 14.5173 1.16211 13.2334C0.409505 11.9717 0.0221354 10.5439 0 8.9502ZM12.3516 7.48926C12.5286 7.29004 12.6172 7.06868 12.6172 6.8252C12.6172 6.58171 12.5286 6.36035 12.3516 6.16113C12.1523 5.98405 11.931 5.89551 11.6875 5.89551C11.444 5.89551 11.2227 5.98405 11.0234 6.16113L7.4375 9.74707L5.97656 8.28613C5.77734 8.10905 5.55599 8.02051 5.3125 8.02051C5.06901 8.02051 4.84766 8.10905 4.64844 8.28613C4.47135 8.48535 4.38281 8.70671 4.38281 8.9502C4.38281 9.19368 4.47135 9.41504 4.64844 9.61426L6.77344 11.7393C6.97266 11.9163 7.19401 12.0049 7.4375 12.0049C7.68099 12.0049 7.90234 11.9163 8.10156 11.7393L12.3516 7.48926Z" fill="#004CE9"/>
</g>
<defs>
<clipPath id="clip0_3_2451">
<rect width="17" height="17" fill="white" transform="matrix(1 0 0 -1 0 17.4502)"/>
</clipPath>
</defs>
</svg>
