<svg width="15" height="16" viewBox="0 0 15 16" fill="none" xmlns="http://www.w3.org/2000/svg">
<g id="Icon" clip-path="url(#clip0_3_4816)">
<path id="Vector" d="M0 8.28003C0.0195312 6.87378 0.361328 5.61401 1.02539 4.50073C1.68945 3.36792 2.58789 2.46948 3.7207 1.80542C4.83398 1.14136 6.09375 0.799561 7.5 0.780029C8.90625 0.799561 10.166 1.14136 11.2793 1.80542C12.4121 2.46948 13.3105 3.36792 13.9746 4.50073C14.6387 5.61401 14.9805 6.87378 15 8.28003C14.9805 9.68628 14.6387 10.946 13.9746 12.0593C13.3105 13.1921 12.4121 14.0906 11.2793 14.7546C10.166 15.4187 8.90625 15.7605 7.5 15.78C6.09375 15.7605 4.83398 15.4187 3.7207 14.7546C2.58789 14.0906 1.68945 13.1921 1.02539 12.0593C0.361328 10.946 0.0195312 9.68628 0 8.28003ZM10.8984 6.99097C11.0547 6.81519 11.1328 6.61987 11.1328 6.40503C11.1328 6.19019 11.0547 5.99487 10.8984 5.81909C10.7227 5.66284 10.5273 5.58472 10.3125 5.58472C10.0977 5.58472 9.90234 5.66284 9.72656 5.81909L6.5625 8.98315L5.27344 7.69409C5.09766 7.53784 4.90234 7.45972 4.6875 7.45972C4.47266 7.45972 4.27734 7.53784 4.10156 7.69409C3.94531 7.86987 3.86719 8.06519 3.86719 8.28003C3.86719 8.49487 3.94531 8.69019 4.10156 8.86597L5.97656 10.741C6.15234 10.8972 6.34766 10.9753 6.5625 10.9753C6.77734 10.9753 6.97266 10.8972 7.14844 10.741L10.8984 6.99097Z" fill="#FFC226"/>
</g>
<defs>
<clipPath id="clip0_3_4816">
<rect width="15" height="15" fill="white" transform="matrix(1 0 0 -1 0 15.78)"/>
</clipPath>
</defs>
</svg>
