<svg width="17" height="17" viewBox="0 0 17 17" fill="none" xmlns="http://www.w3.org/2000/svg">
<path d="M16.3906 8.52002C16.3906 12.8013 12.9219 16.27 8.64062 16.27C7.82812 16.27 7.04688 16.1763 6.32812 15.9263C6.64062 15.4263 7.10938 14.5825 7.29688 13.895C7.39062 13.5513 7.76562 12.0513 7.76562 12.0513C8.01562 12.5513 8.76562 12.9575 9.54688 12.9575C11.8906 12.9575 13.5781 10.8013 13.5781 8.14502C13.5781 5.58252 11.4844 3.64502 8.79688 3.64502C5.45312 3.64502 3.67188 5.89502 3.67188 8.33252C3.67188 9.48877 4.26562 10.895 5.23438 11.3638C5.39062 11.4263 5.48438 11.395 5.51562 11.2388C5.51562 11.145 5.67188 10.6138 5.73438 10.3638C5.73438 10.3013 5.73438 10.2075 5.67188 10.145C5.35938 9.77002 5.10938 9.05127 5.10938 8.36377C5.10938 6.67627 6.39062 5.02002 8.60938 5.02002C10.4844 5.02002 11.8281 6.30127 11.8281 8.17627C11.8281 10.27 10.7656 11.7075 9.39062 11.7075C8.64062 11.7075 8.07812 11.0825 8.23438 10.3325C8.45312 9.39502 8.89062 8.39502 8.89062 7.73877C8.89062 7.14502 8.57812 6.64502 7.92188 6.64502C7.14062 6.64502 6.51562 7.45752 6.51562 8.52002C6.51562 9.20752 6.73438 9.67627 6.73438 9.67627C6.73438 9.67627 5.98438 12.9263 5.82812 13.52C5.67188 14.2075 5.73438 15.145 5.79688 15.7388C2.92188 14.6138 0.890625 11.8325 0.890625 8.52002C0.890625 4.23877 4.35938 0.77002 8.64062 0.77002C12.9219 0.77002 16.3906 4.23877 16.3906 8.52002Z" fill="#A6E155"/>
<a href="https://www.figma.com/file/9UMeNq8n0eSWvJjYBxXDct/Genixs?type=design&#38;node-id=3-5061&#38;mode=design">
<rect fill="black" fill-opacity="0" y="-1.2" width="15.5" height="18.4"/>
</a>
</svg>
