<svg width="14" height="15" viewBox="0 0 14 15" fill="none" xmlns="http://www.w3.org/2000/svg">
<g id="Icon" clip-path="url(#clip0_3_2586)">
<path id="Vector" d="M7 0.0302734C5.6875 0.0485029 4.51172 0.367513 3.47266 0.987305C2.41536 1.6071 1.57682 2.44564 0.957031 3.50293C0.33724 4.54199 0.0182292 5.71777 0 7.03027C0.0182292 8.34277 0.33724 9.51855 0.957031 10.5576C1.57682 11.6149 2.41536 12.4535 3.47266 13.0732C4.51172 13.693 5.6875 14.012 7 14.0303C8.3125 14.012 9.48828 13.693 10.5273 13.0732C11.5846 12.4535 12.4232 11.6149 13.043 10.5576C13.6628 9.51855 13.9818 8.34277 14 7.03027C13.9818 5.71777 13.6628 4.54199 13.043 3.50293C12.4232 2.44564 11.5846 1.6071 10.5273 0.987305C9.48828 0.367513 8.3125 0.0485029 7 0.0302734ZM9.81641 7.65918L6.75391 10.7217C6.57161 10.8857 6.36198 10.9678 6.125 10.9678C5.88802 10.9678 5.67839 10.8857 5.49609 10.7217C5.33203 10.5394 5.25 10.3298 5.25 10.0928C5.25 9.85579 5.33203 9.64616 5.49609 9.46387L7.95703 7.03027L5.49609 4.59668C5.33203 4.41439 5.25 4.20475 5.25 3.96777C5.25 3.73079 5.33203 3.52116 5.49609 3.33887C5.67839 3.1748 5.88802 3.09277 6.125 3.09277C6.36198 3.09277 6.57161 3.1748 6.75391 3.33887L9.81641 6.40137C9.98047 6.58366 10.0625 6.79329 10.0625 7.03027C10.0625 7.26725 9.98047 7.47689 9.81641 7.65918Z" fill="#636363"/>
</g>
<defs>
<clipPath id="clip0_3_2586">
<rect width="14" height="14" fill="white" transform="matrix(1 0 0 -1 0 14.0303)"/>
</clipPath>
</defs>
</svg>
