<svg width="16" height="19" viewBox="0 0 16 19" fill="none" xmlns="http://www.w3.org/2000/svg">
<g id="Icon" clip-path="url(#clip0_3_3053)">
<path id="Vector" d="M15.75 4.60498C15.7266 5.56592 15.3984 6.36279 14.7656 6.99561C14.1328 7.62842 13.3359 7.95654 12.375 7.97998C11.4375 7.97998 10.6523 7.67529 10.0195 7.06592L6.71484 8.71826C6.73828 8.78857 6.73828 8.87061 6.71484 8.96436C6.71484 9.01123 6.71484 9.06982 6.71484 9.14014C6.71484 9.18701 6.71484 9.23389 6.71484 9.28076C6.73828 9.37451 6.73828 9.46826 6.71484 9.56201L10.0195 11.2144C10.6523 10.605 11.4375 10.2886 12.375 10.2651C13.3359 10.2886 14.1328 10.6167 14.7656 11.2495C15.3984 11.8823 15.7266 12.6792 15.75 13.6401C15.7266 14.6011 15.3984 15.3979 14.7656 16.0308C14.1328 16.6636 13.3359 16.9917 12.375 17.0151C11.4141 16.9917 10.6172 16.6636 9.98438 16.0308C9.35156 15.3979 9.02344 14.6011 9 13.6401C9 13.4761 9.01172 13.3354 9.03516 13.2183L5.73047 11.5659C5.09766 12.1753 4.3125 12.4917 3.375 12.5151C2.41406 12.4917 1.61719 12.1636 0.984375 11.5308C0.351562 10.8979 0.0234375 10.1011 0 9.14014C0.0234375 8.1792 0.351562 7.38232 0.984375 6.74951C1.61719 6.1167 2.41406 5.78857 3.375 5.76514C4.3125 5.78857 5.09766 6.10498 5.73047 6.71436L9.03516 5.06201C9.01172 4.89795 9 4.75732 9 4.64014C9.02344 3.6792 9.35156 2.88232 9.98438 2.24951C10.6172 1.6167 11.4141 1.28857 12.375 1.26514C13.3359 1.28857 14.1328 1.6167 14.7656 2.24951C15.3984 2.88232 15.7266 3.6792 15.75 4.64014V4.60498ZM3.33984 10.23C4.04297 10.1831 4.41797 9.80811 4.46484 9.10498C4.46484 8.80029 4.35938 8.54248 4.14844 8.33154C3.9375 8.12061 3.66797 8.00342 3.33984 7.97998C3.03516 8.00342 2.77734 8.12061 2.56641 8.33154C2.35547 8.54248 2.23828 8.80029 2.21484 9.10498C2.23828 9.43311 2.35547 9.70264 2.56641 9.91357C2.77734 10.1245 3.03516 10.23 3.33984 10.23ZM12.375 3.47998C12.0469 3.50342 11.7773 3.62061 11.5664 3.83154C11.3555 4.04248 11.25 4.30029 11.25 4.60498C11.25 4.93311 11.3555 5.20264 11.5664 5.41357C11.7773 5.62451 12.0469 5.72998 12.375 5.72998C12.7031 5.72998 12.9727 5.62451 13.1836 5.41357C13.3945 5.20264 13.5 4.93311 13.5 4.60498C13.5 4.30029 13.3945 4.04248 13.1836 3.83154C12.9727 3.62061 12.7031 3.50342 12.375 3.47998ZM12.375 14.7651C12.7031 14.7651 12.9727 14.6597 13.1836 14.4487C13.3945 14.2378 13.5 13.9683 13.5 13.6401C13.5 13.312 13.3945 13.0425 13.1836 12.8315C12.9727 12.6206 12.7031 12.5151 12.375 12.5151C12.0469 12.5151 11.7773 12.6206 11.5664 12.8315C11.3555 13.0425 11.25 13.312 11.25 13.6401C11.25 13.9683 11.3555 14.2378 11.5664 14.4487C11.7773 14.6597 12.0469 14.7651 12.375 14.7651Z" fill="white"/>
</g>
<defs>
<clipPath id="clip0_3_3053">
<rect width="15.75" height="18" fill="white" transform="matrix(1 0 0 -1 0 18.1401)"/>
</clipPath>
</defs>
</svg>
