<svg width="17" height="14" viewBox="0 0 17 14" fill="none" xmlns="http://www.w3.org/2000/svg">
<path d="M15.2344 3.27002C15.2344 3.42627 15.2344 3.55127 15.2344 3.70752C15.2344 8.05127 11.9531 13.02 5.92188 13.02C4.04688 13.02 2.32812 12.4888 0.890625 11.5513C1.14062 11.5825 1.39062 11.6138 1.67188 11.6138C3.20312 11.6138 4.60938 11.0825 5.73438 10.2075C4.29688 10.1763 3.07812 9.23877 2.67188 7.92627C2.89062 7.95752 3.07812 7.98877 3.29688 7.98877C3.57812 7.98877 3.89062 7.92627 4.14062 7.86377C2.64062 7.55127 1.51562 6.23877 1.51562 4.64502V4.61377C1.95312 4.86377 2.48438 4.98877 3.01562 5.02002C2.10938 4.42627 1.54688 3.42627 1.54688 2.30127C1.54688 1.67627 1.70312 1.11377 1.98438 0.64502C3.60938 2.61377 6.04688 3.92627 8.76562 4.08252C8.70312 3.83252 8.67188 3.58252 8.67188 3.33252C8.67188 1.52002 10.1406 0.0512695 11.9531 0.0512695C12.8906 0.0512695 13.7344 0.42627 14.3594 1.08252C15.0781 0.92627 15.7969 0.64502 16.4219 0.27002C16.1719 1.05127 15.6719 1.67627 14.9844 2.08252C15.6406 2.02002 16.2969 1.83252 16.8594 1.58252C16.4219 2.23877 15.8594 2.80127 15.2344 3.27002Z" fill="#FFC226"/>
<a href="https://www.figma.com/file/9UMeNq8n0eSWvJjYBxXDct/Genixs?type=design&#38;node-id=3-5061&#38;mode=design">
<rect fill="black" fill-opacity="0" y="-1.2" width="16" height="18.4"/>
</a>
</svg>
