<svg width="12" height="15" viewBox="0 0 12 15" fill="none" xmlns="http://www.w3.org/2000/svg">
<path d="M9.9375 7.79639C9.9375 7.85889 9.84375 9.70264 11.875 10.6714C11.5 11.8276 10.1875 14.3901 8.65625 14.3901C7.78125 14.3901 7.28125 13.8276 6.28125 13.8276C5.25 13.8276 4.6875 14.3901 3.90625 14.3901C2.40625 14.4526 0.96875 11.6401 0.5625 10.4839C0.25 9.60889 0.125 8.76514 0.125 7.95264C0.125 5.17139 1.96875 3.82764 3.71875 3.79639C4.5625 3.79639 5.625 4.39014 6.09375 4.39014C6.53125 4.39014 7.75 3.67139 8.875 3.76514C10.0312 3.85889 10.9062 4.29639 11.5 5.14014C10.4688 5.79639 9.9375 6.64014 9.9375 7.79639ZM8.1875 2.67139C7.5625 3.39014 6.8125 3.79639 6 3.73389C5.9375 2.89014 6.25 2.10889 6.8125 1.48389C7.3125 0.921387 8.1875 0.452637 8.9375 0.390137C8.9375 0.733887 9.03125 1.67139 8.1875 2.67139Z" fill="#FFC226"/>
<a href="https://www.figma.com/file/9UMeNq8n0eSWvJjYBxXDct/Genixs?type=design&#38;node-id=3-2258&#38;mode=design">
<rect fill="black" fill-opacity="0" y="-1.2" width="12" height="18.4"/>
</a>
</svg>
