<svg width="16" height="17" viewBox="0 0 16 17" fill="none" xmlns="http://www.w3.org/2000/svg">
<g clip-path="url(#clip0_3_2321)">
<path d="M0 8.89001C0.0208333 7.39001 0.385417 6.04626 1.09375 4.85876C1.80208 3.65043 2.76042 2.6921 3.96875 1.98376C5.15625 1.27543 6.5 0.910848 8 0.890015C9.5 0.910848 10.8438 1.27543 12.0312 1.98376C13.2396 2.6921 14.1979 3.65043 14.9062 4.85876C15.6146 6.04626 15.9792 7.39001 16 8.89001C15.9792 10.39 15.6146 11.7338 14.9062 12.9213C14.1979 14.1296 13.2396 15.0879 12.0312 15.7963C10.8438 16.5046 9.5 16.8692 8 16.89C6.5 16.8692 5.15625 16.5046 3.96875 15.7963C2.76042 15.0879 1.80208 14.1296 1.09375 12.9213C0.385417 11.7338 0.0208333 10.39 0 8.89001ZM11.625 7.51501C11.7917 7.32751 11.875 7.11918 11.875 6.89001C11.875 6.66085 11.7917 6.45251 11.625 6.26501C11.4375 6.09835 11.2292 6.01501 11 6.01501C10.7708 6.01501 10.5625 6.09835 10.375 6.26501L7 9.64001L5.625 8.26501C5.4375 8.09835 5.22917 8.01501 5 8.01501C4.77083 8.01501 4.5625 8.09835 4.375 8.26501C4.20833 8.45251 4.125 8.66085 4.125 8.89001C4.125 9.11918 4.20833 9.32751 4.375 9.51501L6.375 11.515C6.5625 11.6817 6.77083 11.765 7 11.765C7.22917 11.765 7.4375 11.6817 7.625 11.515L11.625 7.51501Z" fill="#175CFF"/>
</g>
<defs>
<clipPath id="clip0_3_2321">
<rect width="16" height="16" fill="white" transform="matrix(1 0 0 -1 0 16.89)"/>
</clipPath>
</defs>
</svg>
