<svg width="18" height="18" viewBox="0 0 18 18" fill="none" xmlns="http://www.w3.org/2000/svg">
<g id="Icon" clip-path="url(#clip0_3_4858)">
<path id="Vector" d="M9.01172 11.7891C8.8125 11.9661 8.59115 12.0547 8.34766 12.0547C8.10417 12.0547 7.88281 11.9661 7.68359 11.7891L5.55859 9.66406C5.38151 9.46484 5.29297 9.24349 5.29297 9C5.29297 8.75651 5.38151 8.53516 5.55859 8.33594C5.75781 8.15885 5.97917 8.07031 6.22266 8.07031C6.46615 8.07031 6.6875 8.15885 6.88672 8.33594L8.34766 9.79688L11.9336 6.21094C12.1328 6.03385 12.3542 5.94531 12.5977 5.94531C12.8411 5.94531 13.0625 6.03385 13.2617 6.21094C13.4388 6.41016 13.5273 6.63151 13.5273 6.875C13.5273 7.11849 13.4388 7.33984 13.2617 7.53906L9.01172 11.7891ZM17.9102 9C17.888 10.5938 17.5007 12.0215 16.748 13.2832C15.9954 14.5671 14.9772 15.5853 13.6934 16.3379C12.4316 17.0905 11.0039 17.4779 9.41016 17.5C7.81641 17.4779 6.38867 17.0905 5.12695 16.3379C3.8431 15.5853 2.82487 14.5671 2.07227 13.2832C1.31966 12.0215 0.932292 10.5938 0.910156 9C0.932292 7.40625 1.31966 5.97852 2.07227 4.7168C2.82487 3.43294 3.8431 2.41471 5.12695 1.66211C6.38867 0.909506 7.81641 0.522135 9.41016 0.5C11.0039 0.522135 12.4316 0.909506 13.6934 1.66211C14.9772 2.41471 15.9954 3.43294 16.748 4.7168C17.5007 5.97852 17.888 7.40625 17.9102 9ZM9.41016 2.09375C7.46224 2.13802 5.83529 2.81315 4.5293 4.11914C3.22331 5.42513 2.54818 7.05208 2.50391 9C2.54818 10.9479 3.22331 12.5749 4.5293 13.8809C5.83529 15.1868 7.46224 15.862 9.41016 15.9062C11.3581 15.862 12.985 15.1868 14.291 13.8809C15.597 12.5749 16.2721 10.9479 16.3164 9C16.2721 7.05208 15.597 5.42513 14.291 4.11914C12.985 2.81315 11.3581 2.13802 9.41016 2.09375Z" fill="#A6E155"/>
</g>
<defs>
<clipPath id="clip0_3_4858">
<rect width="17" height="17" fill="white" transform="matrix(1 0 0 -1 0.910156 17.5)"/>
</clipPath>
</defs>
</svg>
