<svg width="17" height="18" viewBox="0 0 17 18" fill="none" xmlns="http://www.w3.org/2000/svg">
<g clip-path="url(#clip0_3_2440)">
<path d="M0 8.94995C0.0221354 7.3562 0.409505 5.92847 1.16211 4.66675C1.91471 3.38289 2.93294 2.36467 4.2168 1.61206C5.47852 0.859457 6.90625 0.472086 8.5 0.449951C10.0938 0.472086 11.5215 0.859457 12.7832 1.61206C14.0671 2.36467 15.0853 3.38289 15.8379 4.66675C16.5905 5.92847 16.9779 7.3562 17 8.94995C16.9779 10.5437 16.5905 11.9714 15.8379 13.2332C15.0853 14.517 14.0671 15.5352 12.7832 16.2878C11.5215 17.0404 10.0938 17.4278 8.5 17.45C6.90625 17.4278 5.47852 17.0404 4.2168 16.2878C2.93294 15.5352 1.91471 14.517 1.16211 13.2332C0.409505 11.9714 0.0221354 10.5437 0 8.94995ZM12.3516 7.48901C12.5286 7.28979 12.6172 7.06844 12.6172 6.82495C12.6172 6.58146 12.5286 6.36011 12.3516 6.16089C12.1523 5.98381 11.931 5.89526 11.6875 5.89526C11.444 5.89526 11.2227 5.98381 11.0234 6.16089L7.4375 9.74683L5.97656 8.28589C5.77734 8.10881 5.55599 8.02026 5.3125 8.02026C5.06901 8.02026 4.84766 8.10881 4.64844 8.28589C4.47135 8.48511 4.38281 8.70646 4.38281 8.94995C4.38281 9.19344 4.47135 9.41479 4.64844 9.61401L6.77344 11.739C6.97266 11.9161 7.19401 12.0046 7.4375 12.0046C7.68099 12.0046 7.90234 11.9161 8.10156 11.739L12.3516 7.48901Z" fill="white"/>
</g>
<defs>
<clipPath id="clip0_3_2440">
<rect width="17" height="17" fill="white" transform="matrix(1 0 0 -1 0 17.45)"/>
</clipPath>
</defs>
</svg>
