<svg width="17" height="14" viewBox="0 0 17 14" fill="none" xmlns="http://www.w3.org/2000/svg">
<g clip-path="url(#clip0_3_2669)">
<path d="M3.01758 5.96826C3.01758 5.90055 3.01758 5.83285 3.01758 5.76514C3.05143 4.61409 3.44922 3.65771 4.21094 2.896C4.97266 2.13428 5.92904 1.73649 7.08008 1.70264C7.8418 1.71956 8.52734 1.90576 9.13672 2.26123C9.74609 2.63363 10.237 3.12451 10.6094 3.73389C10.9987 3.46305 11.4473 3.32764 11.9551 3.32764C12.6491 3.34456 13.2246 3.58154 13.6816 4.03857C14.1387 4.49561 14.3757 5.07113 14.3926 5.76514C14.3926 6.06982 14.3418 6.36605 14.2402 6.65381C14.985 6.80615 15.6029 7.17855 16.0938 7.771C16.5677 8.34652 16.8132 9.03206 16.8301 9.82764C16.8132 10.7417 16.5 11.5119 15.8906 12.1382C15.2643 12.7476 14.4941 13.0607 13.5801 13.0776H4.23633C3.20378 13.0438 2.34049 12.6883 1.64648 12.0112C0.969401 11.3172 0.613932 10.4539 0.580078 9.42139C0.597005 8.60889 0.825521 7.89795 1.26562 7.28857C1.70573 6.6792 2.28971 6.2391 3.01758 5.96826Z" fill="#FFC226"/>
</g>
<defs>
<clipPath id="clip0_3_2669">
<rect width="16.25" height="13" fill="white" transform="matrix(1 0 0 -1 0.580078 13.8901)"/>
</clipPath>
</defs>
</svg>
