<svg width="15" height="15" viewBox="0 0 15 15" fill="none" xmlns="http://www.w3.org/2000/svg">
<path d="M7.89062 3.92627C9.85938 3.92627 11.4844 5.55127 11.4844 7.52002C11.4844 9.52002 9.85938 11.1138 7.89062 11.1138C5.89062 11.1138 4.29688 9.52002 4.29688 7.52002C4.29688 5.55127 5.89062 3.92627 7.89062 3.92627ZM7.89062 9.86377C9.17188 9.86377 10.2031 8.83252 10.2031 7.52002C10.2031 6.23877 9.17188 5.20752 7.89062 5.20752C6.57812 5.20752 5.54688 6.23877 5.54688 7.52002C5.54688 8.83252 6.60938 9.86377 7.89062 9.86377ZM12.4531 3.80127C12.4531 4.27002 12.0781 4.64502 11.6094 4.64502C11.1406 4.64502 10.7656 4.27002 10.7656 3.80127C10.7656 3.33252 11.1406 2.95752 11.6094 2.95752C12.0781 2.95752 12.4531 3.33252 12.4531 3.80127ZM14.8281 4.64502C14.8906 5.80127 14.8906 9.27002 14.8281 10.4263C14.7656 11.5513 14.5156 12.52 13.7031 13.3638C12.8906 14.1763 11.8906 14.4263 10.7656 14.4888C9.60938 14.5513 6.14062 14.5513 4.98438 14.4888C3.85938 14.4263 2.89062 14.1763 2.04688 13.3638C1.23438 12.52 0.984375 11.5513 0.921875 10.4263C0.859375 9.27002 0.859375 5.80127 0.921875 4.64502C0.984375 3.52002 1.23438 2.52002 2.04688 1.70752C2.89062 0.89502 3.85938 0.64502 4.98438 0.58252C6.14062 0.52002 9.60938 0.52002 10.7656 0.58252C11.8906 0.64502 12.8906 0.89502 13.7031 1.70752C14.5156 2.52002 14.7656 3.52002 14.8281 4.64502ZM13.3281 11.645C13.7031 10.7388 13.6094 8.55127 13.6094 7.52002C13.6094 6.52002 13.7031 4.33252 13.3281 3.39502C13.0781 2.80127 12.6094 2.30127 12.0156 2.08252C11.0781 1.70752 8.89062 1.80127 7.89062 1.80127C6.85938 1.80127 4.67188 1.70752 3.76562 2.08252C3.14062 2.33252 2.67188 2.80127 2.42188 3.39502C2.04688 4.33252 2.14062 6.52002 2.14062 7.52002C2.14062 8.55127 2.04688 10.7388 2.42188 11.645C2.67188 12.27 3.14062 12.7388 3.76562 12.9888C4.67188 13.3638 6.85938 13.27 7.89062 13.27C8.89062 13.27 11.0781 13.3638 12.0156 12.9888C12.6094 12.7388 13.1094 12.27 13.3281 11.645Z" fill="#FF8C91"/>
<a href="https://www.figma.com/file/9UMeNq8n0eSWvJjYBxXDct/Genixs?type=design&#38;node-id=3-5061&#38;mode=design">
<rect fill="black" fill-opacity="0" y="-1.2" width="14" height="18.4"/>
</a>
</svg>
