<svg width="16" height="15" viewBox="0 0 16 15" fill="none" xmlns="http://www.w3.org/2000/svg">
<g id="Item" clip-path="url(#clip0_3_2573)">
<path id="Vector" d="M10.4179 4.63193L14.3554 5.2335C14.7017 5.28818 14.9387 5.47959 15.0663 5.80772C15.1575 6.15407 15.0845 6.45485 14.8476 6.71006L12.0038 9.49912L12.6601 13.5187C12.7147 13.865 12.5963 14.1476 12.3046 14.3663C12.0129 14.5668 11.7121 14.5851 11.4022 14.421L7.8749 12.5616L4.3749 14.421C4.04678 14.5851 3.73688 14.5668 3.44521 14.3663C3.17178 14.1476 3.05329 13.865 3.08975 13.5187L3.77334 9.49912L0.92959 6.71006C0.674382 6.45485 0.601465 6.15407 0.71084 5.80772C0.820215 5.47959 1.04808 5.28818 1.39443 5.2335L5.33193 4.63193L7.08193 1.02256C7.26423 0.712663 7.52855 0.5486 7.8749 0.530372C8.23949 0.5486 8.50381 0.712663 8.66787 1.02256L10.4179 4.63193Z" fill="#FFC226"/>
</g>
<defs>
<clipPath id="clip0_3_2573">
<rect width="15.75" height="14" fill="white" transform="matrix(1 0 0 -1 0 14.5303)"/>
</clipPath>
</defs>
</svg>
